<svg xmlns="http://www.w3.org/2000/svg" version="1.1" height="160" width="552" viewBox="0 0 552 160" class="diagram" text-anchor="middle" font-family="monospace" font-size="13px">
<path d="M 8,32 L 8,136" fill="none" stroke="black"/>
<path d="M 56,32 L 56,48" fill="none" stroke="black"/>
<path d="M 88,64 L 88,112" fill="none" stroke="black"/>
<path d="M 136,64 L 136,96" fill="none" stroke="black"/>
<path d="M 168,64 L 168,136" fill="none" stroke="black"/>
<path d="M 216,96 L 216,136" fill="none" stroke="black"/>
<path d="M 248,64 L 248,112" fill="none" stroke="black"/>
<path d="M 296,64 L 296,96" fill="none" stroke="black"/>
<path d="M 344,72 L 344,112" fill="none" stroke="black"/>
<path d="M 408,72 L 408,112" fill="none" stroke="black"/>
<path d="M 472,80 L 472,112" fill="none" stroke="black"/>
<path d="M 40,96 L 60,136" fill="none" stroke="black"/>
<path d="M 212,72 L 216,80" fill="none" stroke="black"/>
<path d="M 148,136 L 168,96" fill="none" stroke="black"/>
<path d="M 308,136 L 320,112" fill="none" stroke="black"/>
<path d="M 472,80 L 488,48" fill="none" stroke="black"/>
<path d="M 196,72 L 212,72" fill="none" stroke="black"/>
<path d="M 500,72 L 516,72" fill="none" stroke="black"/>
<path d="M 500,104 L 540,104" fill="none" stroke="black"/>
<path d="M 8,136 L 28,136" fill="none" stroke="black"/>
<path d="M 60,136 L 76,136" fill="none" stroke="black"/>
<path d="M 100,136 L 148,136" fill="none" stroke="black"/>
<path d="M 168,136 L 188,136" fill="none" stroke="black"/>
<path d="M 216,136 L 236,136" fill="none" stroke="black"/>
<path d="M 260,136 L 308,136" fill="none" stroke="black"/>
<path d="M 356,136 L 380,136" fill="none" stroke="black"/>
<path d="M 420,136 L 444,136" fill="none" stroke="black"/>
<path d="M 484,136 L 540,136" fill="none" stroke="black"/>
<g class="text">
<text x="24" y="20">/$$</text>
<text x="72" y="20">/$$</text>
<text x="128" y="20">/$ /$</text>
<text x="288" y="20">/$ /$</text>
<text x="360" y="20">/$$</text>
<text x="424" y="20">/$$</text>
<text x="32" y="36">$$$</text>
<text x="76" y="36">$$</text>
<text x="124" y="36">|_/|_/</text>
<text x="284" y="36">|_/|_/</text>
<text x="356" y="36">| $$</text>
<text x="420" y="36">| $$</text>
<text x="36" y="52">$$$$</text>
<text x="92" y="52">$$ /$$</text>
<text x="188" y="52">/$$ /$$$$$$$</text>
<text x="264" y="52">/$$</text>
<text x="376" y="52">/$$ /$$$$$$ /$$$$$$</text>
<text x="516" y="52">$$$$$$</text>
<text x="52" y="68">$$ $$ $$</text>
<text x="108" y="68">$$</text>
<text x="156" y="68">$$</text>
<text x="188" y="68">$$</text>
<text x="236" y="68">$$</text>
<text x="268" y="68">$$</text>
<text x="324" y="68">$$|_</text>
<text x="380" y="68">$$_/|_</text>
<text x="436" y="68">$$_/</text>
<text x="492" y="68">$$</text>
<text x="540" y="68">$$</text>
<text x="28" y="84">$$</text>
<text x="68" y="84">$$$$</text>
<text x="108" y="84">$$</text>
<text x="156" y="84">$$</text>
<text x="188" y="84">$$</text>
<text x="236" y="84">$$</text>
<text x="268" y="84">$$</text>
<text x="316" y="84">$$</text>
<text x="364" y="84">$$</text>
<text x="428" y="84">$$</text>
<text x="516" y="84">$$$$$$$$</text>
<text x="28" y="100">$$</text>
<text x="72" y="100">$$$</text>
<text x="108" y="100">$$</text>
<text x="156" y="100">$$</text>
<text x="188" y="100">$$</text>
<text x="236" y="100">$$</text>
<text x="268" y="100">$$</text>
<text x="316" y="100">$$</text>
<text x="380" y="100">$$ /$$</text>
<text x="444" y="100">$$ /$$</text>
<text x="492" y="100">$$</text>
<text x="544" y="100">/</text>
<text x="28" y="116">$$</text>
<text x="76" y="116">$$</text>
<text x="132" y="116">$$$$$$</text>
<text x="188" y="116">$$</text>
<text x="236" y="116">$$</text>
<text x="292" y="116">$$$$$$</text>
<text x="384" y="116">$$$$/</text>
<text x="448" y="116">$$$$/</text>
<text x="520" y="116">$$$$$$$</text>
<text x="32" y="132">/</text>
<text x="88" y="132">/ \</text>
<text x="192" y="132">/</text>
<text x="248" y="132">/ \</text>
<text x="352" y="132">\</text>
<text x="384" y="132">/</text>
<text x="416" y="132">\</text>
<text x="448" y="132">/</text>
<text x="480" y="132">\</text>
<text x="544" y="132">/</text>
</g>
</svg>
